<svg xmlns="http://www.w3.org/2000/svg" viewBox="0 0 32 32">
  <!-- Dark background -->
  <rect width="32" height="32" fill="#24273a" rx="4"/>
  <!-- Pink snowboarder (scaled and centered) -->
  <g transform="translate(-12.5, -11.5) scale(0.0583)">
    <path d="M 640.00 696.00 L 640.00 704.00 L 616.00 704.00 L 616.00 696.00 L 592.00 696.00 L 592.00 688.00 L 568.00 688.00 L 568.00 680.00 L 552.00 680.00 L 552.00 664.00 L 560.00 664.00 L 560.00 656.00 L 536.00 656.00 L 536.00 664.00 L 496.00 664.00 L 496.00 656.00 L 504.00 656.00 L 504.00 648.00 L 512.00 648.00 L 512.00 640.00 L 480.00 640.00 L 480.00 648.00 L 448.00 648.00 L 448.00 640.00 L 416.00 640.00 L 416.00 632.00 L 384.00 632.00 L 384.00 624.00 L 360.00 624.00 L 360.00 616.00 L 344.00 616.00 L 344.00 608.00 L 360.00 608.00 L 360.00 604.00 C360.00,601.80 360.34,600.00 360.75,600.00 C361.16,600.00 361.50,598.31 361.50,596.25 L 361.50 592.50 L 368.50 592.34 C372.35,592.26 375.95,592.15 376.51,592.09 C377.06,592.04 377.51,590.54 377.51,588.75 C377.50,585.81 377.81,585.47 380.75,585.19 C383.87,584.89 384.00,585.02 384.00,588.44 C384.00,591.93 384.08,592.00 388.00,592.00 L 392.00 592.00 L 392.00 600.00 L 400.00 600.00 L 400.00 608.00 L 392.00 608.00 L 392.00 624.00 L 400.00 624.00 L 400.00 616.00 L 416.00 616.00 L 416.00 608.00 L 424.00 608.00 L 424.00 600.00 L 432.00 600.00 L 432.00 616.00 L 424.00 616.00 L 424.00 624.00 L 432.00 624.00 L 432.00 632.00 L 440.00 632.00 L 440.00 624.00 L 448.00 624.00 L 448.00 616.00 L 480.00 616.00 L 480.00 608.00 L 472.00 608.00 L 472.00 600.00 L 464.00 600.00 L 464.00 584.00 L 480.00 584.00 L 480.00 576.00 L 472.00 576.00 L 472.00 568.00 L 480.00 568.00 L 480.00 560.00 L 488.00 560.00 L 488.00 552.00 L 472.00 552.00 L 472.00 544.00 L 456.00 544.00 L 456.00 536.00 L 440.00 536.00 L 440.00 520.00 L 432.00 520.00 L 432.00 496.00 L 416.00 496.00 L 416.00 480.00 L 424.00 480.00 L 424.00 464.00 L 432.00 464.00 L 432.00 448.00 L 435.94 448.00 C439.77,448.00 439.89,447.90 440.19,444.25 C440.48,440.70 440.70,440.48 444.25,440.19 L 448.00 439.88 L 448.00 424.00 L 456.00 424.00 L 456.00 416.00 L 464.00 416.00 L 464.00 408.00 L 472.00 408.00 L 472.00 400.00 L 480.00 400.00 L 480.00 392.00 L 488.00 392.00 L 488.00 384.00 L 496.00 384.00 L 496.00 368.00 L 488.00 368.00 L 488.00 360.00 L 472.00 360.00 L 472.00 352.00 L 456.00 352.00 L 456.00 344.00 L 432.00 344.00 L 432.00 336.00 L 384.00 336.00 L 384.00 328.00 L 360.00 328.00 L 360.00 336.00 L 344.00 336.00 L 344.00 328.00 L 352.00 328.00 L 352.00 320.00 L 336.00 320.00 L 336.00 312.00 L 328.00 312.00 L 328.00 280.00 L 352.00 280.00 L 352.00 288.00 L 368.00 288.00 L 368.00 296.00 L 394.82 296.00 C416.74,296.00 422.50,296.29 426.32,297.59 C430.15,298.90 431.00,299.62 431.00,301.59 L 431.00 304.00 L 464.00 304.00 L 464.00 311.92 L 471.75 312.21 L 479.50 312.50 L 480.12 320.00 L 503.88 320.00 L 504.19 323.75 C504.48,327.30 504.70,327.52 508.25,327.81 C511.90,328.11 512.00,328.23 512.00,332.06 C512.00,335.98 512.02,336.00 515.94,336.00 C519.77,336.00 519.89,336.10 520.19,339.75 C520.48,343.30 520.70,343.52 524.25,343.81 C527.90,344.11 528.00,344.23 528.00,348.06 C528.00,351.99 528.01,352.00 532.00,352.00 L 536.00 352.00 L 536.00 360.00 L 544.00 360.00 L 544.00 368.00 L 552.00 368.00 L 552.00 376.00 L 560.00 376.00 L 560.00 384.00 L 568.00 384.00 L 568.00 392.00 L 584.00 392.00 L 584.00 376.00 L 576.00 376.00 L 576.00 360.00 L 568.00 360.00 L 568.00 352.00 L 560.00 352.00 L 560.00 336.00 L 552.00 336.00 L 552.00 320.00 L 544.00 320.00 L 544.00 312.00 L 536.00 312.00 L 536.00 296.00 L 544.00 296.00 L 544.00 304.00 L 552.00 304.00 L 552.00 312.00 L 568.00 312.00 L 568.00 304.00 L 576.00 304.00 L 576.00 295.85 L 594.75 296.54 C605.06,296.92 613.91,297.62 614.41,298.08 C614.92,298.55 615.40,299.96 615.49,301.21 C615.63,303.08 616.37,303.59 619.58,304.00 C623.30,304.47 623.53,304.71 624.00,308.50 C624.45,312.11 624.80,312.53 627.60,312.80 L 630.70 313.10 L 631.35 324.30 C631.70,330.46 631.99,339.21 632.00,343.75 L 632.00 352.00 L 627.50 352.00 C623.42,352.00 623.00,352.22 623.00,354.39 C623.00,356.95 620.95,358.30 618.50,357.36 C616.79,356.71 616.50,354.43 618.00,353.50 C618.58,353.14 618.74,351.21 618.37,348.94 C617.63,344.32 618.04,344.13 621.45,347.55 L 624.00 350.09 L 624.00 344.00 L 600.00 344.00 L 600.00 336.00 L 586.50 336.00 C575.41,336.00 573.00,336.26 573.00,337.44 C573.00,338.23 573.46,339.16 574.02,339.51 C575.38,340.35 574.26,342.00 572.32,342.00 C571.18,342.00 570.90,341.30 571.27,339.38 C571.65,337.39 571.31,336.63 569.88,336.26 C568.24,335.83 568.00,334.77 568.00,327.88 L 568.00 320.00 L 564.00 320.00 C560.83,320.00 560.02,320.36 560.08,321.75 C560.13,322.80 560.36,323.00 560.66,322.25 C561.44,320.33 564.80,320.77 565.96,322.93 C567.20,325.25 567.33,329.00 566.17,329.00 C565.72,329.00 565.38,330.57 565.42,332.50 C565.47,334.59 566.00,336.00 566.75,336.00 C567.54,336.00 568.00,337.47 568.00,340.00 L 568.00 344.00 L 576.00 344.00 L 576.00 360.00 L 584.00 360.00 L 584.00 368.00 L 608.00 368.00 L 608.00 360.00 L 616.00 360.00 L 616.00 384.00 L 608.00 384.00 L 608.00 392.00 L 624.00 392.00 L 624.00 415.88 L 627.75 416.19 C629.24,416.31 630.17,416.34 630.76,416.80 C631.80,417.62 631.77,419.79 631.89,426.25 L 632.00 432.00 L 640.00 432.00 L 640.00 479.88 L 647.50 480.50 L 648.08 495.88 L 655.50 496.50 L 656.05 528.00 L 664.00 528.00 L 664.00 544.00 L 672.00 544.00 L 672.00 560.00 L 680.00 560.00 L 680.00 584.00 L 664.00 584.00 L 664.00 576.00 L 656.00 576.00 L 656.00 568.00 L 648.00 568.00 L 648.00 584.00 L 640.00 584.00 L 640.00 568.00 L 632.00 568.00 L 632.00 616.00 L 624.00 616.00 L 624.00 624.00 L 616.00 624.00 L 616.00 616.00 L 608.00 616.00 L 608.00 632.00 L 616.00 632.00 L 616.00 640.00 L 632.00 640.00 L 632.00 664.00 L 624.00 664.00 L 624.00 672.00 L 632.00 672.00 L 632.00 680.00 L 640.00 680.00 L 640.00 672.00 L 648.00 672.00 L 648.00 680.00 L 664.00 680.00 L 664.00 688.00 L 672.00 688.00 L 672.00 680.00 L 696.00 680.00 L 696.00 672.00 L 728.00 672.00 L 728.00 680.00 L 720.00 680.00 L 720.00 688.00 L 704.00 688.00 L 704.00 696.00 L 696.00 696.00 L 696.00 688.00 L 688.00 688.00 L 688.00 704.00 L 648.00 704.00 L 648.00 696.00 ZM 504.00 624.00 L 504.00 632.00 L 528.00 632.00 L 528.00 640.00 L 552.00 640.00 L 552.00 648.00 L 576.00 648.00 L 576.00 640.00 L 568.00 640.00 L 568.00 600.00 L 584.00 600.00 L 584.00 592.00 L 576.00 592.00 L 576.00 576.00 L 584.00 576.00 L 584.00 568.00 L 592.00 568.00 L 592.00 560.00 L 584.00 560.00 L 584.00 544.00 L 576.00 544.00 L 576.00 536.00 L 560.00 536.00 L 560.00 544.00 L 552.00 544.00 L 552.00 552.00 L 544.00 552.00 L 544.00 560.00 L 536.00 560.00 L 536.00 576.00 L 528.00 576.00 L 528.00 584.00 L 536.00 584.00 L 536.00 600.00 L 528.00 600.00 L 528.00 624.00 L 504.00 624.00 ZM 600.00 492.61 L 600.00 496.00 L 616.00 496.00 L 616.00 480.00 L 608.00 480.00 L 608.00 440.00 L 600.00 440.00 L 600.00 448.00 L 592.00 448.00 L 592.00 464.00 L 584.00 464.00 L 584.00 472.00 L 576.00 472.00 L 576.00 488.00 L 586.42 488.00 C592.15,488.00 597.55,488.27 598.42,488.61 C599.43,489.00 600.00,490.44 600.00,492.61 ZM 520.00 496.00 L 552.00 496.00 L 552.00 512.00 L 544.00 512.00 L 544.00 520.00 L 536.00 520.00 L 536.00 528.00 L 540.00 528.00 C543.99,528.00 544.00,527.99 544.00,524.06 C544.00,520.23 544.10,520.11 547.75,519.81 C551.30,519.52 551.52,519.30 551.81,515.75 L 552.12 512.00 L 568.00 512.00 L 568.00 488.00 L 560.00 488.00 L 560.00 480.00 L 544.00 480.00 L 544.00 488.00 L 520.00 488.00 L 520.00 496.00 ZM 584.57 661.75 C584.95,663.81 584.61,664.00 580.49,664.00 L 576.00 664.00 L 576.00 672.00 L 608.00 672.00 L 608.00 664.00 L 624.00 664.00 L 624.00 656.00 L 600.00 656.00 L 600.00 648.00 L 576.00 648.00 L 576.00 656.00 L 580.00 656.00 C583.11,656.00 584.02,656.39 584.07,657.75 C584.12,658.71 584.34,660.51 584.57,661.75 ZM 632.00 520.00 L 632.00 536.00 L 640.00 536.00 L 640.00 512.00 L 632.00 512.00 L 632.00 504.00 L 616.00 504.00 L 616.00 512.00 L 624.00 512.00 L 624.00 520.00 L 632.00 520.00 ZM 480.00 487.85 L 480.00 496.00 L 488.00 496.00 L 488.00 488.00 L 504.00 488.00 L 504.00 480.00 L 488.11 480.00 L 487.50 488.50 L 483.75 488.17 ZM 504.00 624.00 L 504.00 616.00 L 480.00 616.00 L 480.00 624.00 L 504.00 624.00 ZM 512.00 544.00 L 512.00 552.00 L 516.00 552.00 C519.99,552.00 520.00,551.99 520.00,548.06 C520.00,544.23 520.10,544.11 523.75,543.81 C527.30,543.52 527.52,543.30 527.81,539.75 C528.11,536.10 528.23,536.00 532.06,536.00 C535.99,536.00 536.00,535.99 536.00,532.00 L 536.00 528.00 L 528.00 528.00 L 528.00 536.00 L 520.00 536.00 L 520.00 544.00 ZM 480.00 432.00 L 496.00 432.00 L 496.00 424.00 L 480.00 424.00 L 480.00 432.00 ZM 596.00 356.50 C595.16,356.77 593.02,357.15 591.24,357.36 C588.38,357.69 588.00,357.45 588.00,355.34 C588.00,353.71 588.79,352.65 590.50,352.00 C592.00,351.43 593.00,350.26 593.00,349.08 C593.00,346.81 594.14,345.92 597.53,345.55 C598.96,345.39 599.69,345.69 599.32,346.30 C598.91,346.95 599.82,347.09 601.84,346.68 C604.01,346.25 605.00,346.43 604.98,347.27 C604.96,349.27 603.63,350.74 601.50,351.14 C600.40,351.34 599.05,352.53 598.51,353.76 C597.96,355.00 596.83,356.24 596.00,356.50 ZM 568.00 680.00 L 576.00 680.00 L 576.00 672.00 L 568.00 672.00 L 568.00 680.00 ZM 632.00 680.00 L 624.00 680.00 L 624.00 688.00 L 632.00 688.00 L 632.00 680.00 ZM 576.00 656.00 L 568.00 656.00 L 568.00 664.00 L 576.00 664.00 ZM 608.00 680.00 L 616.00 680.00 L 616.00 672.00 L 608.00 672.00 L 608.00 680.00 ZM 608.00 680.00 L 600.00 680.00 L 600.00 688.00 L 608.00 688.00 L 608.00 680.00 ZM 472.00 432.00 L 472.00 440.00 L 480.00 440.00 L 480.00 432.00 ZM 520.00 496.00 L 512.00 496.00 L 512.00 504.00 L 520.00 504.00 L 520.00 496.00 ZM 456.00 512.00 L 456.00 520.00 L 464.00 520.00 L 464.00 512.00 ZM 584.00 520.00 L 584.00 528.00 L 592.00 528.00 L 592.00 520.00 ZM 600.00 560.00 L 600.00 568.00 L 608.00 568.00 L 608.00 560.00 ZM 488.00 592.00 L 488.00 600.00 L 496.00 600.00 L 496.00 592.00 ZM 504.00 592.00 L 504.00 600.00 L 512.00 600.00 L 512.00 592.00 ZM 608.00 600.00 L 608.00 608.00 L 616.00 608.00 L 616.00 600.00 ZM 456.00 632.00 L 456.00 640.00 L 464.00 640.00 L 464.00 632.00 ZM 560.67 335.33 C561.69,336.36 561.76,336.18 561.26,333.59 C560.94,331.88 561.30,331.09 562.51,330.84 C564.03,330.54 563.99,330.29 562.11,328.60 L 560.00 326.69 L 560.00 330.68 C560.00,332.87 560.30,334.97 560.67,335.33 ZM 645.00 667.50 C645.00,668.33 644.33,669.00 643.50,669.00 C642.67,669.00 642.00,668.33 642.00,667.50 C642.00,666.67 642.67,666.00 643.50,666.00 C644.33,666.00 645.00,666.67 645.00,667.50 Z" fill="#f5bde6"/>
  </g>
</svg>
