<svg version="1.0" xmlns="http://www.w3.org/2000/svg"
 width="900.000000pt" height="900.000000pt" viewBox="0 0 900.000000 900.000000"
 preserveAspectRatio="xMidYMid meet">
<g transform="translate(0.000000,900.000000) scale(0.100000,-0.100000)"
fill="#FFFFFF" stroke="none">
<path d="M2145 8935 c-5 -3 -44 -9 -85 -14 -143 -20 -360 -73 -412 -101 -10
-6 -26 -10 -36 -10 -9 0 -26 -6 -37 -14 -11 -7 -37 -19 -58 -26 -66 -21 -298
-142 -391 -204 -351 -231 -618 -522 -815 -885 -28 -52 -51 -97 -51 -100 0 -3
-10 -28 -24 -56 -48 -100 -66 -146 -66 -165 0 -10 -4 -21 -9 -24 -5 -3 -12
-23 -16 -43 -3 -21 -17 -69 -30 -108 -26 -74 -36 -124 -60 -297 -13 -94 -15
-396 -12 -2430 3 -1528 8 -2344 14 -2383 24 -140 37 -195 64 -278 16 -48 29
-94 29 -102 0 -9 4 -23 9 -33 5 -9 19 -44 31 -77 20 -55 135 -294 163 -340 37
-60 118 -183 131 -200 9 -11 29 -36 44 -56 126 -168 330 -370 447 -445 17 -10
41 -29 55 -42 62 -56 348 -214 510 -282 72 -30 338 -109 368 -110 13 0 32 -4
42 -10 60 -32 171 -33 2530 -33 2347 -1 2416 0 2530 32 51 14 229 61 273 72
20 5 70 23 110 40 39 17 88 38 107 46 19 8 42 18 50 22 8 4 49 25 90 46 108
56 249 143 293 182 20 18 40 33 45 33 4 0 18 10 32 23 14 12 47 40 73 61 61
50 223 211 273 273 21 26 47 57 56 68 80 94 187 265 267 425 18 36 39 78 47
93 8 16 14 36 14 46 0 9 4 21 9 26 13 13 52 112 61 155 5 19 16 60 25 90 27
89 46 169 63 265 14 80 16 352 19 2430 2 1520 0 2347 -6 2360 -6 11 -15 54
-20 95 -8 69 -20 123 -52 240 -6 25 -15 54 -20 65 -4 11 -10 35 -13 52 -3 18
-19 62 -36 97 -16 36 -30 69 -30 74 0 5 -20 50 -45 101 -25 50 -45 94 -45 96
0 2 -28 50 -62 105 -35 56 -68 110 -74 121 -6 11 -22 32 -35 47 -13 15 -33 41
-43 57 -73 114 -282 325 -445 447 -20 15 -42 33 -50 39 -17 15 -157 107 -203
133 -59 35 -282 146 -293 146 -5 1 -28 9 -50 20 -22 11 -48 19 -57 20 -9 0
-19 4 -22 9 -3 5 -23 12 -43 15 -21 4 -69 18 -108 31 -66 22 -120 34 -260 58
-57 9 -4736 21 -4760 12z m4665 -294 c150 -29 178 -35 245 -52 215 -55 420
-146 603 -268 30 -20 71 -47 91 -60 66 -44 215 -173 290 -250 113 -117 247
-294 307 -406 15 -27 30 -52 33 -55 9 -7 71 -135 71 -146 0 -5 8 -25 19 -44
46 -86 119 -338 143 -495 16 -99 16 -4632 0 -4730 -13 -82 -37 -190 -59 -260
-35 -113 -66 -201 -74 -211 -5 -6 -15 -28 -23 -50 -19 -56 -57 -136 -72 -154
-7 -8 -23 -36 -37 -61 -31 -59 -93 -151 -133 -198 -17 -20 -36 -45 -41 -55
-33 -60 -279 -306 -339 -339 -10 -5 -35 -24 -55 -41 -47 -40 -139 -102 -198
-133 -25 -14 -53 -30 -61 -37 -16 -13 -146 -76 -158 -76 -4 0 -19 -7 -34 -14
-79 -42 -350 -120 -478 -138 -105 -16 -4634 -16 -4740 0 -179 26 -395 94 -610
194 -36 17 -67 34 -70 38 -3 4 -27 19 -55 34 -116 62 -307 208 -425 326 -75
74 -193 213 -236 279 -129 195 -150 233 -222 391 -25 56 -43 106 -102 285 -10
31 -22 100 -41 229 -5 38 -14 77 -19 87 -14 25 -14 4506 0 4545 6 16 14 58 19
94 19 130 40 218 81 340 23 69 46 130 50 135 4 6 21 43 38 84 26 61 145 271
175 306 4 6 29 40 55 76 26 36 66 86 90 111 23 24 55 62 71 83 15 21 45 51 66
66 21 16 57 46 79 67 23 21 73 61 111 90 39 28 75 55 80 60 34 27 228 139 283
164 37 17 85 38 107 48 130 58 330 113 479 131 44 6 87 14 95 19 26 15 4521 6
4601 -9z"/>
<path d="M4125 7104 c-209 -15 -447 -54 -510 -84 -11 -5 -55 -20 -97 -34 -338
-110 -666 -379 -813 -668 -41 -79 -105 -265 -105 -302 0 -14 -5 -37 -11 -52
-5 -16 -10 -105 -10 -204 0 -176 9 -242 54 -395 26 -90 99 -231 152 -294 89
-106 130 -147 195 -198 41 -32 77 -61 78 -65 2 -5 9 -8 15 -8 7 0 32 -14 57
-30 40 -27 181 -99 280 -143 77 -34 262 -96 390 -132 74 -20 146 -41 160 -45
14 -5 81 -21 150 -35 69 -14 152 -32 185 -40 125 -29 202 -47 255 -60 30 -7
80 -20 110 -28 30 -9 102 -29 160 -46 315 -89 568 -204 685 -312 40 -37 125
-149 125 -165 0 -3 6 -20 14 -37 43 -97 51 -141 51 -287 0 -134 -2 -151 -29
-225 -62 -174 -151 -287 -306 -390 -74 -49 -240 -131 -285 -140 -16 -4 -39
-10 -50 -15 -48 -19 -155 -42 -254 -53 -103 -12 -466 -15 -546 -5 -22 3 -69 9
-105 12 -36 4 -85 13 -110 21 -25 7 -72 21 -105 30 -375 107 -634 304 -772
586 -43 87 -65 154 -89 274 -7 39 -17 86 -22 105 l-8 35 -299 3 c-164 1 -302
-1 -306 -5 -10 -10 15 -235 36 -323 22 -93 46 -182 56 -205 4 -11 25 -60 45
-110 46 -108 107 -212 188 -320 223 -296 502 -475 941 -605 17 -4 50 -11 75
-15 25 -3 74 -12 110 -20 166 -35 246 -40 620 -40 260 0 392 4 430 12 30 7
100 22 155 34 110 23 202 47 225 60 8 4 47 20 85 34 302 114 598 357 759 624
67 110 85 149 124 271 48 151 53 186 59 350 7 231 -10 369 -66 529 -73 207
-210 381 -429 545 -127 95 -336 205 -467 246 -65 21 -159 51 -180 60 -28 10
-116 35 -215 60 -47 12 -92 25 -100 29 -8 4 -60 18 -115 31 -55 12 -145 33
-200 47 -94 24 -122 30 -227 52 -66 13 -217 50 -273 65 -27 8 -84 24 -125 35
-85 23 -208 66 -217 75 -4 3 -13 6 -21 6 -8 0 -70 27 -137 59 -99 48 -135 72
-186 123 -108 106 -159 236 -159 403 0 95 15 173 46 242 8 17 14 34 14 38 0
18 78 120 130 171 125 120 287 209 445 244 22 5 85 19 140 31 90 20 127 23
375 23 299 0 338 -5 565 -71 196 -58 364 -170 482 -321 83 -107 158 -299 178
-455 l6 -47 307 2 307 3 3 54 c4 77 -42 326 -78 416 -101 258 -233 440 -430
596 -216 170 -543 310 -840 358 -127 21 -217 30 -335 36 -66 3 -140 7 -165 9
-25 2 -126 -2 -225 -10z"/>
</g>
</svg>
